<svg version="1.1" id="Layer_1" xmlns="http://www.w3.org/2000/svg" xmlns:xlink="http://www.w3.org/1999/xlink" x="0px" y="0px"
	 width="100%" viewBox="0 0 150 151" enable-background="new 0 0 150 151" xml:space="preserve">
<path fill="#121110" opacity="1.000000" stroke="none" 
	d="
M82.000000,152.000000 
	C54.688969,152.000000 27.877934,152.000000 1.033450,152.000000 
	C1.033450,101.730820 1.033450,51.461605 1.033450,1.096196 
	C50.894154,1.096196 100.788551,1.096196 150.841476,1.096196 
	C150.841476,51.332935 150.841476,101.666420 150.841476,152.000000 
	C128.128647,152.000000 105.314323,152.000000 82.000000,152.000000 
M60.089214,113.739197 
	C60.661423,113.974342 61.233631,114.209488 61.790489,114.323662 
	C61.790489,114.323662 61.671459,114.350143 62.195835,114.849388 
	C69.908287,117.736069 77.686264,119.513023 85.803909,116.337029 
	C85.803909,116.337029 85.901932,116.300705 86.626266,116.363068 
	C87.533752,116.050163 88.441238,115.737259 89.247742,115.432571 
	C89.247742,115.432571 89.269188,115.531593 89.914200,115.388306 
	C90.637100,114.938522 91.359993,114.488731 92.781372,113.960228 
	C105.254189,106.667648 117.800934,99.497833 130.176407,92.043640 
	C140.062683,86.088776 144.530457,73.585220 140.950256,62.843155 
	C138.680527,64.775864 136.669296,67.120049 134.139328,68.539902 
	C118.120079,77.530067 102.127853,86.592751 85.782921,94.959930 
	C82.032562,96.879791 76.286011,97.827057 72.587471,96.365036 
	C62.062859,92.204666 51.999020,86.798462 41.983906,81.451637 
	C31.661892,75.940979 21.610767,69.922920 11.385754,64.095306 
	C8.838553,75.961502 13.016315,86.139297 23.112625,92.110893 
	C33.505157,98.257683 44.053268,104.141411 54.881851,110.668587 
	C55.271358,110.806885 55.660866,110.945175 56.139191,111.202614 
	C56.139191,111.202614 56.262741,111.120033 56.664028,111.713654 
	C57.103111,111.876923 57.542198,112.040184 57.928020,112.080963 
	C57.928020,112.080963 57.806755,112.136940 58.190659,112.620285 
	C58.757607,112.859840 59.324554,113.099388 59.872292,113.204109 
	C59.872292,113.204109 59.738640,113.230270 60.089214,113.739197 
M52.247143,11.698015 
	C41.977959,17.634754 31.819508,23.774321 21.411423,29.456638 
	C8.548826,36.479008 8.585299,51.334251 21.416527,57.955486 
	C33.875248,64.384491 45.697414,72.036041 57.921555,78.933746 
	C70.508171,86.035995 83.185432,86.642754 95.858070,78.865753 
	C103.433258,74.216980 111.197632,69.876808 118.781593,65.241882 
	C124.782288,61.574562 130.667572,57.715069 136.549271,53.857311 
	C142.384842,50.029808 142.854309,39.048286 138.321579,34.841816 
	C135.496460,32.220047 132.374588,29.815887 129.077667,27.824303 
	C120.074448,22.385656 110.793312,17.403410 101.839439,11.887813 
	C93.602318,6.813727 84.931381,2.894735 75.201363,3.185574 
	C67.077202,3.428413 59.706154,6.897778 52.247143,11.698015 
M98.147331,143.663193 
	C108.339485,137.368149 118.577278,131.145523 128.711014,124.757812 
	C138.949844,118.303841 144.173935,105.900513 141.083450,96.344803 
	C138.339157,98.320168 135.657196,100.572456 132.684280,102.333603 
	C121.236755,109.115059 109.548126,115.499397 98.227310,122.482361 
	C83.717918,131.432114 69.552872,131.324707 55.006107,122.603668 
	C40.412994,113.854843 25.581356,105.503883 10.839215,96.969841 
	C9.658589,108.794037 13.844936,118.331841 24.539261,124.760101 
	C35.372025,131.271576 46.246746,137.714325 57.030945,144.305237 
	C70.617157,152.608643 84.070015,152.240265 98.147331,143.663193 
z"/>
<path fill="#58C7D5" opacity="1.000000" stroke="none" 
	d="
M52.569607,11.515203 
	C59.706154,6.897778 67.077202,3.428413 75.201363,3.185574 
	C84.931381,2.894735 93.602318,6.813727 101.839439,11.887813 
	C110.793312,17.403410 120.074448,22.385656 129.077667,27.824303 
	C132.374588,29.815887 135.496460,32.220047 138.321579,34.841816 
	C142.854309,39.048286 142.384842,50.029808 136.549271,53.857311 
	C130.667572,57.715069 124.782288,61.574562 118.781593,65.241882 
	C111.197632,69.876808 103.433258,74.216980 95.858070,78.865753 
	C83.185432,86.642754 70.508171,86.035995 57.921555,78.933746 
	C45.697414,72.036041 33.875248,64.384491 21.416527,57.955486 
	C8.585299,51.334251 8.548826,36.479008 21.411423,29.456638 
	C31.819508,23.774321 41.977959,17.634754 52.569607,11.515203 
z"/>
<path fill="#F1D033" opacity="1.000000" stroke="none" 
	d="
M85.901932,116.300705 
	C85.901932,116.300705 85.803909,116.337029 85.260406,116.234985 
	C77.035080,115.538673 69.353271,114.944412 61.671459,114.350143 
	C61.671459,114.350143 61.790489,114.323662 61.615639,114.123901 
	C60.873405,113.692856 60.306023,113.461563 59.738640,113.230270 
	C59.738640,113.230270 59.872292,113.204109 59.685371,113.025307 
	C58.934547,112.609985 58.370651,112.373466 57.806755,112.136940 
	C57.806755,112.136940 57.928020,112.080963 57.696663,111.918777 
	C57.064445,111.544403 56.663593,111.332222 56.262741,111.120033 
	C56.262741,111.120033 56.139191,111.202614 55.867264,110.946014 
	C55.241329,110.506371 54.887318,110.323311 54.533306,110.140251 
	C44.053268,104.141411 33.505157,98.257683 23.112625,92.110893 
	C13.016315,86.139297 8.838553,75.961502 11.385754,64.095306 
	C21.610767,69.922920 31.661892,75.940979 41.983906,81.451637 
	C51.999020,86.798462 62.062859,92.204666 72.587471,96.365036 
	C76.286011,97.827057 82.032562,96.879791 85.782921,94.959930 
	C102.127853,86.592751 118.120079,77.530067 134.139328,68.539902 
	C136.669296,67.120049 138.680527,64.775864 140.950256,62.843155 
	C144.530457,73.585220 140.062683,86.088776 130.176407,92.043640 
	C117.800934,99.497833 105.254189,106.667648 92.090698,114.019951 
	C90.689735,114.563644 89.979462,115.047615 89.269188,115.531586 
	C89.269188,115.531593 89.247742,115.432571 88.923355,115.357735 
	C87.699959,115.622169 86.800941,115.961433 85.901932,116.300705 
z"/>
<path fill="#E12E3D" opacity="1.000000" stroke="none" 
	d="
M97.824142,143.837463 
	C84.070015,152.240265 70.617157,152.608643 57.030945,144.305237 
	C46.246746,137.714325 35.372025,131.271576 24.539261,124.760101 
	C13.844936,118.331841 9.658589,108.794037 10.839215,96.969841 
	C25.581356,105.503883 40.412994,113.854843 55.006107,122.603668 
	C69.552872,131.324707 83.717918,131.432114 98.227310,122.482361 
	C109.548126,115.499397 121.236755,109.115059 132.684280,102.333603 
	C135.657196,100.572456 138.339157,98.320168 141.083450,96.344803 
	C144.173935,105.900513 138.949844,118.303841 128.711014,124.757812 
	C118.577278,131.145523 108.339485,137.368149 97.824142,143.837463 
z"/>
<path fill="#E9D434" opacity="1.000000" stroke="none" 
	d="
M61.933647,114.599762 
	C69.353271,114.944412 77.035080,115.538673 85.239655,116.187012 
	C77.686264,119.513023 69.908287,117.736069 61.933647,114.599762 
z"/>
<path fill="#E9D434" opacity="1.000000" stroke="none" 
	d="
M89.591690,115.459946 
	C89.979462,115.047615 90.689735,114.563644 91.741455,114.059311 
	C91.359993,114.488731 90.637100,114.938522 89.591690,115.459946 
z"/>
<path fill="#E9D434" opacity="1.000000" stroke="none" 
	d="
M86.264099,116.331879 
	C86.800941,115.961433 87.699959,115.622169 88.973846,115.353630 
	C88.441238,115.737259 87.533752,116.050163 86.264099,116.331879 
z"/>
<path fill="#E9D434" opacity="1.000000" stroke="none" 
	d="
M57.998707,112.378616 
	C58.370651,112.373466 58.934547,112.609985 59.694977,113.092720 
	C59.324554,113.099388 58.757607,112.859840 57.998707,112.378616 
z"/>
<path fill="#E9D434" opacity="1.000000" stroke="none" 
	d="
M59.913925,113.484734 
	C60.306023,113.461563 60.873405,113.692856 61.623314,114.184387 
	C61.233631,114.209488 60.661423,113.974342 59.913925,113.484734 
z"/>
<path fill="#E9D434" opacity="1.000000" stroke="none" 
	d="
M54.707581,110.404419 
	C54.887318,110.323311 55.241329,110.506371 55.822853,110.886444 
	C55.660866,110.945175 55.271358,110.806885 54.707581,110.404419 
z"/>
<path fill="#E9D434" opacity="1.000000" stroke="none" 
	d="
M56.463387,111.416840 
	C56.663593,111.332222 57.064445,111.544403 57.723293,111.980011 
	C57.542198,112.040184 57.103111,111.876923 56.463387,111.416840 
z"/>
</svg>